<?xml version="1.0" encoding="utf-8"?>
<!-- Generator: Adobe Illustrator 24.3.0, SVG Export Plug-In . SVG Version: 6.00 Build 0)  -->
<svg version="1.1" id="Capa_1" xmlns="http://www.w3.org/2000/svg" xmlns:xlink="http://www.w3.org/1999/xlink" x="0px" y="0px"
	 viewBox="0 0 345 100" style="enable-background:new 0 0 345 100;" xml:space="preserve">
<style type="text/css">
	.st0{fill:#08132B;stroke:#0C111D;stroke-width:0.5426;stroke-miterlimit:10;}
	.st1{fill:#F2933D;}
</style>
<g>
	<path class="st0" d="M58.6,79.3c-1.3,1-2.6,1.8-4.3,2.1c-0.5-0.1-1,0-1.5,0c-13.4,0-26.8,0-40.2,0c-0.5,0-1-0.2-1.5,0
		C10.4,81.2,9.7,81,9,80.7c-1.2-0.3-2.1-1.1-2.8-2c-0.8-1-1.4-2.1-1.7-3.4c-0.1-0.3-0.2-0.6-0.1-0.9c0.1-0.3,0-0.6,0-1
		c0-13.6,0-27.1,0-40.7c0-0.3,0-0.6,0-1c-0.1-0.6,0.1-1.2,0.4-1.8c0.3-0.7,0.6-1.3,1-1.9c0.8-1.2,1.9-2,3.1-2.7
		c0.6-0.3,1.2-0.5,1.8-0.6c0.3-0.1,0.6-0.1,0.9-0.1c1,0.2,2,0.1,3,0.1c3.9,0,7.7,0,11.6,0c3.6,0,7.2,0,10.8,0c3.7,0,7.4,0,11.1,0
		c0.5,0,1,0,1.5,0c0.3,0,0.5,0,0.7,0.3c0,0.3-0.3,0.5-0.5,0.7c-2.4,2-4.4,4.4-6.5,6.7c-0.2,0.2-0.4,0.5-0.8,0.5
		c-2.5,0.1-4.9,0-7.4,0c-3.5,0-7.1,0-10.6,0c-3.6,0-7.2,0-10.8,0c-0.9,0-0.9,0-0.9,0.9c0,5,0,10,0,14.9c0,4.8,0,9.6,0,14.4
		c0,3.3,0,6.6,0,9.9c0,0.1,0,0.1,0,0.2c0.4,0.1,0.8,0,1.1,0c12.6,0,25.2,0,37.8,0c0.3,0,0.7,0.1,1-0.1c0.1-0.1,0.1-0.1,0.1-0.2
		c0-2,0-4,0-6c0-3.4,0-6.8,0-10.1c0-3.4,0-6.8,0-10.1c0-0.9,0.3-1.6,0.9-2.2c0.1-0.1,0.3-0.3,0.4-0.4c0.5-0.5,0.9-1.1,1.4-1.7
		c0.2-0.2,0.4-0.4,0.6-0.7c0.4-0.5,0.9-0.9,1.3-1.4c0.3-0.2,0.4-0.6,0.7-0.8c0.5-0.5,0.9-0.9,1.4-1.4c0.3-0.3,0.6-0.5,0.8-0.8
		c0.2-0.2,0.4-0.4,0.7-0.1c0.2,0.4,0.1,0.8,0.1,1.2c0,11.7,0,23.5,0,35.2c0,0.1,0,0.3,0,0.4c0.1,1.5-0.6,2.8-1.4,4
		C59.4,78.6,59.2,79.1,58.6,79.3z"/>
	<path class="st1" d="M60.1,21.9c0.1,0,0.2-0.1,0.3-0.2c1.3-0.9,2.6-1.9,4-2.7c0.7-0.4,1.5-0.4,2.3-0.4c0.7,0,1.2,0.4,1.8,0.6
		c0.2,0.2,0.5,0.4,0.7,0.6c1,0.5,1.1,1.5,1.2,2.4c0.1,1.4-0.4,2.6-1.5,3.5c-0.1,0.1-0.3,0.2-0.4,0.3c-2.2,1.4-4.2,2.9-6.2,4.5
		c-0.5,0.4-1.1,0.8-1.5,1.3c-0.1,0.1-0.3,0.2-0.4,0.3c-0.6,0.6-1.3,1.1-1.9,1.7c-0.1,0.1-0.2,0.2-0.3,0.3c-1.4,1.1-2.6,2.4-3.8,3.8
		c-0.1,0.1-0.1,0.1-0.2,0.2c-0.7,0.6-1.2,1.3-1.8,2c-0.1,0.2-0.2,0.3-0.4,0.4c-0.5,0.5-0.9,1-1.3,1.5c-2.2,2.7-4.3,5.4-6.2,8.3
		c-0.9,1.3-1.7,2.6-2.5,4c-0.1,0.1-0.2,0.3-0.2,0.4c-0.4,0.6-0.7,1.2-1,1.8c-0.8,1.3-1.5,2.7-2.2,4.1c-0.3,0.5-0.5,1.1-0.8,1.6
		c-0.9,1.8-2.3,2.9-4.4,2.7c-1.2-0.1-2.2-0.6-2.9-1.6c-1.3-1.6-2.6-3.3-3.8-5c-0.4-0.6-0.9-1.2-1.4-1.8c-0.1-0.1-0.2-0.2-0.2-0.3
		c-1.6-2-3.1-4.1-4.7-6.1c-0.4-0.5-0.8-1-1.1-1.5c-0.1-0.2-0.3-0.4-0.5-0.5c-0.4-0.5-0.8-1-1.1-1.6c-0.8-1.5-0.7-3,0.3-4.4
		c1-1.4,2.3-1.9,4-1.7c0.5,0.1,1,0.3,1.5,0.5c0.9,0.4,1.4,1.2,2,1.9c0.3,0.4,0.6,0.8,0.9,1.1c0.4,0.5,0.8,1.1,1.2,1.5
		c0.2,0.2,0.3,0.4,0.5,0.6c1.6,2.1,3.1,4.1,4.7,6.2c0.5,0.7,0.5,0.7,0.9-0.1c0-0.1,0.1-0.2,0.1-0.2c0.3-0.6,0.7-1.2,1-1.8
		c0.8-1.3,1.7-2.7,2.5-4c1.3-2.2,2.9-4.2,4.4-6.2c0.1-0.1,0.2-0.2,0.3-0.4c0.4-0.6,0.9-1.2,1.4-1.8c4.4-5.5,9.4-10.5,14.9-14.9
		C58.8,22.8,59.3,22.2,60.1,21.9z"/>
	<g>
		<g>
			<path class="st0" d="M85.4,54.8c-0.3-0.3-0.5-0.8-0.5-1.3V29.3c0-0.5,0.2-0.9,0.5-1.3c0.3-0.4,0.8-0.5,1.3-0.5h8
				c3,0,5.6,0.7,7.7,2c2.1,1.3,3.7,3.1,4.8,5.2c1.1,2.1,1.6,4.4,1.6,6.7c0,2.3-0.5,4.6-1.6,6.7c-1.1,2.1-2.6,3.9-4.8,5.2
				c-2.1,1.3-4.7,2-7.7,2h-8C86.1,55.3,85.7,55.1,85.4,54.8z M94.2,51.9c2.2,0,4.1-0.4,5.7-1.3c1.6-0.9,2.9-2.1,3.8-3.7
				c0.9-1.6,1.4-3.4,1.4-5.5s-0.5-3.9-1.4-5.5c-0.9-1.6-2.2-2.8-3.8-3.7c-1.6-0.9-3.6-1.3-5.7-1.3h-5.7v21H94.2z"/>
			<path class="st0" d="M116.8,54.7c-1.1-0.7-1.9-1.6-2.5-2.8c-0.6-1.2-0.9-2.5-0.9-3.9V36.6c0-0.5,0.2-0.9,0.5-1.3
				c0.4-0.3,0.8-0.5,1.3-0.5c0.5,0,0.9,0.2,1.3,0.5c0.3,0.3,0.5,0.8,0.5,1.3v10.9c0,3.2,1.5,4.9,4.4,4.9c1.3,0,2.5-0.3,3.6-1
				c1-0.7,2-1.6,3-2.8V36.6c0-0.5,0.2-0.9,0.5-1.3c0.4-0.3,0.8-0.5,1.3-0.5c0.5,0,0.9,0.2,1.3,0.5c0.3,0.3,0.5,0.8,0.5,1.3v17.1
				c0,0.5-0.2,0.9-0.5,1.3c-0.3,0.4-0.8,0.5-1.3,0.5c-0.5,0-0.9-0.2-1.3-0.5c-0.4-0.4-0.5-0.8-0.5-1.3V52c-1,1.1-2.1,2-3.3,2.7
				c-1.2,0.7-2.5,1-4.1,1C119.2,55.7,117.9,55.3,116.8,54.7z"/>
			<path class="st0" d="M139.4,52.9c-1.8-1.8-2.7-4.4-2.7-7.8c0-1.9,0.3-3.6,1-5.2c0.7-1.6,1.8-2.9,3.2-3.9c1.4-1,3.2-1.5,5.3-1.5
				c2,0,3.7,0.5,5.1,1.4c1.4,0.9,2.5,2.1,3.3,3.7c0.7,1.5,1.1,3.2,1.1,5c0,0.5-0.2,0.9-0.5,1.3c-0.3,0.3-0.8,0.5-1.3,0.5h-13.5
				c0.2,1.9,0.9,3.3,2.1,4.3c1.2,1,2.8,1.6,4.9,1.6c1.1,0,2.1-0.1,2.9-0.3c0.8-0.2,1.7-0.5,2.4-0.9c0.2-0.1,0.5-0.2,0.7-0.2
				c0.4,0,0.8,0.1,1.1,0.4c0.3,0.3,0.5,0.7,0.5,1.1c0,0.6-0.3,1.1-1,1.5c-1,0.6-2.1,1-3.1,1.3c-1,0.3-2.3,0.4-3.9,0.4
				C143.8,55.7,141.2,54.8,139.4,52.9z M152.1,43.5c-0.1-1.3-0.4-2.4-1-3.3c-0.6-0.9-1.3-1.5-2.2-1.9c-0.9-0.4-1.8-0.6-2.7-0.6
				c-0.9,0-1.8,0.2-2.7,0.6c-0.9,0.4-1.6,1.1-2.2,1.9c-0.6,0.9-0.9,2-1,3.3H152.1z"/>
			<path class="st0" d="M172,54.8c-0.3-0.3-0.5-0.8-0.5-1.3V29.3c0-0.5,0.2-0.9,0.5-1.3c0.3-0.4,0.8-0.5,1.3-0.5h8
				c3,0,5.6,0.7,7.7,2c2.1,1.3,3.7,3.1,4.8,5.2c1.1,2.1,1.6,4.4,1.6,6.7c0,2.3-0.5,4.6-1.6,6.7c-1.1,2.1-2.6,3.9-4.8,5.2
				c-2.1,1.3-4.7,2-7.7,2h-8C172.8,55.3,172.4,55.1,172,54.8z M180.9,51.9c2.2,0,4.1-0.4,5.7-1.3c1.6-0.9,2.9-2.1,3.8-3.7
				c0.9-1.6,1.4-3.4,1.4-5.5s-0.5-3.9-1.4-5.5c-0.9-1.6-2.2-2.8-3.8-3.7c-1.6-0.9-3.6-1.3-5.7-1.3h-5.7v21H180.9z"/>
			<path class="st0" d="M200.6,30.3c-0.4-0.4-0.6-0.9-0.6-1.4v-0.2c0-0.6,0.2-1,0.6-1.4c0.4-0.4,0.9-0.6,1.4-0.6h0.2
				c0.6,0,1,0.2,1.4,0.6c0.4,0.4,0.6,0.9,0.6,1.4v0.2c0,0.6-0.2,1-0.6,1.4c-0.4,0.4-0.9,0.6-1.4,0.6H202
				C201.4,30.9,201,30.7,200.6,30.3z M200.8,55c-0.3-0.3-0.5-0.8-0.5-1.3V36.6c0-0.5,0.2-0.9,0.5-1.3c0.3-0.4,0.8-0.5,1.3-0.5
				c0.5,0,1,0.2,1.3,0.5c0.3,0.3,0.5,0.8,0.5,1.3v17.1c0,0.5-0.2,0.9-0.5,1.3s-0.8,0.5-1.3,0.5C201.6,55.5,201.1,55.3,200.8,55z"/>
			<path class="st0" d="M210.7,55c-0.3-0.3-0.5-0.8-0.5-1.3V27.9c0-0.5,0.2-0.9,0.5-1.3c0.3-0.4,0.8-0.5,1.3-0.5
				c0.5,0,1,0.2,1.3,0.5c0.3,0.3,0.5,0.8,0.5,1.3v25.8c0,0.5-0.2,0.9-0.5,1.3s-0.8,0.5-1.3,0.5C211.5,55.5,211.1,55.3,210.7,55z"/>
			<path class="st0" d="M220.4,30.3c-0.4-0.4-0.6-0.9-0.6-1.4v-0.2c0-0.6,0.2-1,0.6-1.4c0.4-0.4,0.9-0.6,1.4-0.6h0.2
				c0.6,0,1,0.2,1.4,0.6c0.4,0.4,0.6,0.9,0.6,1.4v0.2c0,0.6-0.2,1-0.6,1.4c-0.4,0.4-0.9,0.6-1.4,0.6h-0.2
				C221.3,30.9,220.8,30.7,220.4,30.3z M220.6,55c-0.3-0.3-0.5-0.8-0.5-1.3V36.6c0-0.5,0.2-0.9,0.5-1.3c0.3-0.4,0.8-0.5,1.3-0.5
				c0.5,0,1,0.2,1.3,0.5c0.3,0.3,0.5,0.8,0.5,1.3v17.1c0,0.5-0.2,0.9-0.5,1.3c-0.4,0.3-0.8,0.5-1.3,0.5
				C221.4,55.5,221,55.3,220.6,55z"/>
			<path class="st0" d="M234.8,64.2c-1.6-0.4-2.9-0.9-3.9-1.5c-0.5-0.3-0.7-0.8-0.7-1.4c0-0.4,0.2-0.8,0.5-1.1
				c0.3-0.3,0.7-0.5,1.1-0.5c0.2,0,0.5,0.1,0.7,0.2c2,1,4.2,1.5,6.6,1.5c4.1,0,6.1-2.2,6.1-6.5v-2.7c-1.9,2-4.2,3-6.8,3
				c-1.6,0-3.1-0.4-4.6-1.2c-1.5-0.8-2.7-1.9-3.6-3.5c-1-1.6-1.4-3.4-1.4-5.7c0-2.2,0.5-4.1,1.4-5.7c1-1.6,2.2-2.7,3.6-3.5
				c1.5-0.8,3-1.2,4.6-1.2c2.7,0,4.9,1,6.8,3v-1c0-0.5,0.2-0.9,0.5-1.3c0.3-0.4,0.8-0.5,1.3-0.5c0.5,0,0.9,0.2,1.3,0.5
				c0.4,0.4,0.5,0.8,0.5,1.3v17.8c0,3.3-0.8,5.9-2.4,7.7c-1.6,1.8-3.9,2.7-6.9,2.7C237.9,64.8,236.4,64.6,234.8,64.2z M242.5,51.2
				c1-0.5,1.9-1.2,2.7-2.1v-8.2c-0.9-0.9-1.8-1.6-2.7-2.1c-1-0.5-2.1-0.8-3.3-0.8c-2,0-3.6,0.6-4.9,1.8c-1.3,1.2-1.9,3-1.9,5.2
				c0,2.3,0.6,4,1.9,5.2c1.3,1.2,2.9,1.8,4.9,1.8C240.4,52,241.5,51.7,242.5,51.2z"/>
			<path class="st0" d="M256.6,52.9c-1.8-1.8-2.7-4.4-2.7-7.8c0-1.9,0.3-3.6,1-5.2c0.7-1.6,1.8-2.9,3.2-3.9c1.4-1,3.2-1.5,5.3-1.5
				c2,0,3.7,0.5,5.1,1.4c1.4,0.9,2.5,2.1,3.3,3.7c0.7,1.5,1.1,3.2,1.1,5c0,0.5-0.2,0.9-0.5,1.3c-0.3,0.3-0.8,0.5-1.3,0.5h-13.5
				c0.2,1.9,0.9,3.3,2.1,4.3c1.2,1,2.8,1.6,4.9,1.6c1.1,0,2.1-0.1,2.9-0.3c0.8-0.2,1.7-0.5,2.4-0.9c0.2-0.1,0.5-0.2,0.7-0.2
				c0.4,0,0.8,0.1,1.1,0.4c0.3,0.3,0.5,0.7,0.5,1.1c0,0.6-0.3,1.1-1,1.5c-1,0.6-2.1,1-3.1,1.3c-1,0.3-2.3,0.4-3.9,0.4
				C261,55.7,258.4,54.8,256.6,52.9z M269.3,43.5c-0.1-1.3-0.4-2.4-1-3.3c-0.6-0.9-1.3-1.5-2.2-1.9c-0.9-0.4-1.8-0.6-2.7-0.6
				c-0.9,0-1.8,0.2-2.7,0.6c-0.9,0.4-1.6,1.1-2.2,1.9c-0.6,0.9-0.9,2-1,3.3H269.3z"/>
			<path class="st0" d="M278.2,55c-0.3-0.3-0.5-0.8-0.5-1.3V36.6c0-0.5,0.2-0.9,0.5-1.3c0.3-0.4,0.8-0.5,1.3-0.5
				c0.5,0,0.9,0.2,1.3,0.5c0.4,0.4,0.5,0.8,0.5,1.3v1.6c1-1.1,2.1-2,3.3-2.7c1.2-0.7,2.5-1,4.1-1c1.5,0,2.7,0.3,3.8,1
				c1.1,0.7,1.9,1.6,2.5,2.8c0.6,1.2,0.9,2.5,0.9,3.9v11.3c0,0.5-0.2,0.9-0.5,1.3c-0.4,0.3-0.8,0.5-1.3,0.5c-0.5,0-0.9-0.2-1.3-0.5
				c-0.3-0.3-0.5-0.8-0.5-1.3V42.8c0-3.2-1.5-4.9-4.4-4.9c-1.3,0-2.5,0.3-3.6,1c-1,0.7-2,1.6-3,2.8v11.9c0,0.5-0.2,0.9-0.5,1.3
				s-0.8,0.5-1.3,0.5C278.9,55.5,278.5,55.3,278.2,55z"/>
			<path class="st0" d="M306,54.4c-1.6-0.8-2.9-2.1-3.9-3.7c-1-1.6-1.5-3.5-1.5-5.6s0.5-4,1.5-5.6c1-1.6,2.3-2.8,3.9-3.7
				c1.6-0.8,3.4-1.3,5.3-1.3c1.4,0,2.6,0.2,3.6,0.5c1,0.4,2,0.8,2.8,1.4c0.5,0.3,0.8,0.8,0.8,1.4c0,0.4-0.2,0.8-0.5,1.1
				c-0.3,0.3-0.7,0.5-1.1,0.5c-0.3,0-0.6-0.1-0.9-0.2c-0.9-0.5-1.6-0.8-2.2-1c-0.6-0.2-1.4-0.3-2.3-0.3c-2.3,0-4.1,0.7-5.4,2
				c-1.3,1.3-2,3-2,5.2s0.6,3.9,2,5.2c1.3,1.3,3.1,2,5.4,2c0.9,0,1.7-0.1,2.3-0.3c0.6-0.2,1.4-0.5,2.2-1c0.3-0.2,0.6-0.2,0.9-0.2
				c0.4,0,0.7,0.2,1.1,0.5c0.3,0.3,0.5,0.7,0.5,1.1c0,0.6-0.3,1-0.8,1.4c-0.9,0.6-1.8,1-2.8,1.4c-1,0.4-2.2,0.5-3.6,0.5
				C309.4,55.7,307.6,55.3,306,54.4z"/>
			<path class="st0" d="M324.4,52.9c-1.8-1.8-2.7-4.4-2.7-7.8c0-1.9,0.3-3.6,1-5.2c0.7-1.6,1.8-2.9,3.2-3.9c1.4-1,3.2-1.5,5.3-1.5
				c2,0,3.7,0.5,5.1,1.4c1.4,0.9,2.5,2.1,3.3,3.7c0.7,1.5,1.1,3.2,1.1,5c0,0.5-0.2,0.9-0.5,1.3c-0.3,0.3-0.8,0.5-1.3,0.5h-13.5
				c0.2,1.9,0.9,3.3,2.1,4.3c1.2,1,2.8,1.6,4.9,1.6c1.1,0,2.1-0.1,2.9-0.3c0.8-0.2,1.7-0.5,2.4-0.9c0.2-0.1,0.5-0.2,0.7-0.2
				c0.4,0,0.8,0.1,1.1,0.4c0.3,0.3,0.5,0.7,0.5,1.1c0,0.6-0.3,1.1-1,1.5c-1,0.6-2.1,1-3.1,1.3c-1,0.3-2.3,0.4-3.9,0.4
				C328.8,55.7,326.2,54.8,324.4,52.9z M337.1,43.5c-0.1-1.3-0.4-2.4-1-3.3c-0.6-0.9-1.3-1.5-2.2-1.9c-0.9-0.4-1.8-0.6-2.7-0.6
				c-0.9,0-1.8,0.2-2.7,0.6c-0.9,0.4-1.6,1.1-2.2,1.9c-0.6,0.9-0.9,2-1,3.3H337.1z"/>
		</g>
	</g>
	<g>
		<g>
			<path class="st0" d="M97.3,79.6c-0.5,0.2-1.1,0.4-1.6,0.5c-0.5,0.1-1.1,0.2-1.6,0.2c-0.8,0-1.5-0.1-2.2-0.4
				c-0.7-0.2-1.4-0.6-1.9-1.1c-1.2-1.1-1.8-2.4-1.8-4c0-1,0.2-1.8,0.7-2.6c0.5-0.7,0.9-1.3,1.4-1.6c0.5-0.4,0.9-0.6,1.3-0.8
				c0.4-0.2,0.7-0.3,1-0.3c0.3-0.1,0.5-0.1,0.8-0.1c0.3,0,0.5,0,0.8,0c0.4,0,0.8,0,1.2,0.1c0.4,0.1,0.8,0.1,1.2,0.3l0.8,0.4v1.4
				c-0.9-0.6-2-0.9-3.1-0.9c-0.8,0-1.5,0.1-2.1,0.4c-0.7,0.3-1.2,0.7-1.7,1.3c-0.3,0.4-0.5,0.8-0.6,1.2c-0.1,0.4-0.2,0.9-0.2,1.3
				c0,0.8,0.2,1.5,0.6,2.2c0.4,0.7,1,1.2,1.8,1.6c0.8,0.4,1.5,0.5,2.3,0.5c0.8,0,1.6-0.2,2.3-0.6l0.8-0.5V79.6z"/>
			<path class="st0" d="M114.6,74.8c0,1.5-0.6,2.8-1.8,3.9c-1.2,1.1-2.6,1.6-4.2,1.6c-1.7,0-3.1-0.5-4.3-1.6c-1.2-1-1.8-2.3-1.8-3.8
				c0-1.5,0.6-2.8,1.8-3.9c1.2-1.1,2.6-1.6,4.2-1.6c1.7,0,3.1,0.5,4.3,1.6C114,72,114.6,73.3,114.6,74.8z M113.2,74.7
				c0-1.2-0.5-2.2-1.4-3c-0.9-0.8-2-1.2-3.4-1.2c-1.3,0-2.4,0.4-3.3,1.3c-0.9,0.9-1.3,1.9-1.3,3.1c0,1.2,0.5,2.2,1.4,3
				c0.9,0.8,2,1.2,3.4,1.2c1.3,0,2.4-0.4,3.3-1.3C112.8,77,113.2,75.9,113.2,74.7z"/>
			<path class="st0" d="M128.6,80.3h-0.3l-8.2-8.3V80h-1.3V69.4l0.3,0l8.1,8.4v-8.1h1.3V80.3z"/>
			<path class="st0" d="M142,71.5l-1.2,0.5c-0.1-0.4-0.4-0.8-0.8-1c-0.4-0.3-0.9-0.4-1.4-0.4c-0.4,0-0.7,0.1-1,0.2
				c-0.3,0.1-0.5,0.4-0.7,0.7c-0.1,0.3-0.2,0.5-0.2,0.8c0,0.6,0.3,1.1,1,1.4l2.9,1c0.5,0.3,0.9,0.6,1.2,1.1c0.3,0.5,0.4,1,0.4,1.5
				c0,0.4-0.1,0.9-0.3,1.3c-0.2,0.4-0.5,0.8-0.9,1.1c-0.7,0.5-1.5,0.7-2.4,0.7c-0.8,0-1.5-0.2-2.2-0.5c-0.4-0.2-0.6-0.5-0.8-0.8
				c-0.2-0.3-0.4-0.7-0.5-1.2l1.2-0.6c0,0.6,0.2,1.1,0.7,1.5s1,0.6,1.6,0.6c0.2,0,0.5,0,0.7-0.1c0.2-0.1,0.5-0.2,0.7-0.3
				c0.2-0.2,0.4-0.4,0.5-0.6c0.1-0.3,0.2-0.6,0.2-0.9c0-0.4-0.1-0.8-0.3-1c-0.2-0.2-0.4-0.4-0.5-0.4c-0.1-0.1-0.4-0.2-0.8-0.3
				l-1.9-0.6c-0.6-0.3-1-0.6-1.4-1c-0.4-0.4-0.5-0.9-0.5-1.5c0-0.1,0-0.4,0.1-0.8c0.1-0.4,0.3-0.8,0.7-1.2c0.4-0.4,0.8-0.7,1.3-0.8
				c0.5-0.1,0.9-0.1,1.3-0.1c0.2,0,0.3,0,0.4,0c0.1,0,0.3,0,0.7,0.1c0.4,0.1,0.8,0.3,1.2,0.6C141.6,70.6,141.9,71,142,71.5z"/>
			<path class="st0" d="M154.6,80h-1.3V69.7h1.3V80z"/>
			<path class="st0" d="M171.6,79.5c-0.4,0.2-0.8,0.3-1.2,0.4c-0.4,0.1-0.8,0.2-1.2,0.2H165V69.7h4.8c1.4,0.1,2.6,0.7,3.4,1.7
				c0.8,1,1.2,2.2,1.2,3.5c0,1-0.2,1.9-0.7,2.7C173.3,78.4,172.5,79.1,171.6,79.5z M172.9,74.2c-0.1-0.8-0.4-1.5-1-2.2
				c-0.6-0.6-1.3-1-2.2-1.2h-3.4v8.1h2.9c1.1,0,2.1-0.4,2.7-1.3c0.7-0.8,1-1.8,1-2.9C173,74.6,173,74.4,172.9,74.2z"/>
			<path class="st0" d="M187.2,80h-6.1V69.7h6.1v1.1h-4.8v3.1h4.8v1.1h-4.8v4h4.8V80z"/>
			<path class="st0" d="M203.9,80l-1.8,0l-4.2-5.3V80h-1.4V69.7l4.2,0c0.8,0,1.5,0.3,2,0.8c0.5,0.6,0.8,1.2,0.8,2
				c0,0.4-0.1,0.8-0.2,1.1c-0.1,0.3-0.4,0.6-0.7,0.9c-0.4,0.3-0.8,0.5-1.2,0.6l-1.5,0L203.9,80z M200.8,70.9c-0.1,0-0.3-0.1-0.4-0.1
				c-0.1,0-0.3,0-0.4,0h-2.1v3.5h2.5c0.5,0,0.9-0.2,1.1-0.5c0.3-0.3,0.4-0.7,0.4-1.1c0-0.4-0.1-0.7-0.3-1
				C201.5,71.3,201.2,71,200.8,70.9z"/>
			<path class="st0" d="M230.5,80h-1.3V69.7h1.3V80z"/>
			<path class="st0" d="M248.9,70.7h-3.2V80h-1.4v-9.3h-3.2v-1.1h7.9V70.7z"/>
			<path class="st0" d="M277.9,79.5c-0.4,0.2-0.8,0.3-1.2,0.4c-0.4,0.1-0.8,0.2-1.2,0.2h-4.3V69.7h4.8c1.4,0.1,2.6,0.7,3.4,1.7
				c0.8,1,1.2,2.2,1.2,3.5c0,1-0.2,1.9-0.7,2.7C279.5,78.4,278.8,79.1,277.9,79.5z M279.2,74.2c-0.1-0.8-0.4-1.5-1-2.2
				c-0.6-0.6-1.3-1-2.2-1.2h-3.4v8.1h2.9c1.1,0,2.1-0.4,2.7-1.3c0.7-0.8,1-1.8,1-2.9C279.2,74.6,279.2,74.4,279.2,74.2z"/>
			<path class="st0" d="M296.8,74.8c0,1.5-0.6,2.8-1.8,3.9c-1.2,1.1-2.6,1.6-4.2,1.6c-1.7,0-3.1-0.5-4.3-1.6c-1.2-1-1.8-2.3-1.8-3.8
				c0-1.5,0.6-2.8,1.8-3.9c1.2-1.1,2.6-1.6,4.2-1.6c1.7,0,3.1,0.5,4.3,1.6C296.2,72,296.8,73.3,296.8,74.8z M295.4,74.7
				c0-1.2-0.5-2.2-1.4-3c-0.9-0.8-2-1.2-3.4-1.2c-1.3,0-2.4,0.4-3.3,1.3c-0.9,0.9-1.3,1.9-1.3,3.1c0,1.2,0.5,2.2,1.4,3
				c0.9,0.8,2,1.2,3.4,1.2c1.3,0,2.4-0.4,3.3-1.3C294.9,77,295.4,75.9,295.4,74.7z"/>
			<path class="st0" d="M310.8,80.3h-0.3l-8.2-8.3V80h-1.3V69.4l0.3,0l8.1,8.4v-8.1h1.3V80.3z"/>
			<path class="st0" d="M323.9,80h-6.1V69.7h6.1v1.1h-4.8v3.1h4.8v1.1h-4.8v4h4.8V80z"/>
			<path class="st0" d="M336.2,78.5c0.2,0,0.4,0.1,0.5,0.3c0.1,0.1,0.2,0.3,0.2,0.5c0,0.2-0.1,0.4-0.2,0.6c-0.1,0.2-0.3,0.3-0.5,0.3
				c-0.3,0-0.6-0.1-0.8-0.2c-0.2-0.2-0.3-0.4-0.3-0.6c0-0.4,0.2-0.6,0.6-0.8C335.9,78.5,336,78.5,336.2,78.5z M336.7,77.5h-1.3v-7.8
				h1.3V77.5z"/>
		</g>
	</g>
</g>
</svg>
