<svg xmlns="http://www.w3.org/2000/svg" xmlns:xlink="http://www.w3.org/1999/xlink" viewBox="0 0 10921.26 6669.3"><defs><clipPath id="clip-path" transform="translate(-540.64)"><rect y="16.07" width="11905.51" height="6551.92" style="fill:none"/></clipPath><linearGradient id="Degradado_sin_nombre_9" x1="2443.9" y1="3469.76" x2="2443.9" y2="1811.1" gradientUnits="userSpaceOnUse"><stop offset="0.04" stop-color="#f8f2d1"/><stop offset="0.23" stop-color="#a48e5c"/><stop offset="0.33" stop-color="#d4c296"/><stop offset="0.46" stop-color="#fbfcf6"/><stop offset="0.6" stop-color="#d4c296"/><stop offset="0.83" stop-color="#a48e5c"/><stop offset="0.93" stop-color="#9a8454"/><stop offset="1" stop-color="#f8f2d1"/></linearGradient><linearGradient id="Degradado_sin_nombre_9-2" x1="3343.37" y1="3184.12" x2="3343.37" y2="2287.18" xlink:href="#Degradado_sin_nombre_9"/><linearGradient id="Degradado_sin_nombre_9-3" x1="2810.08" y1="3731.48" x2="2810.08" y2="2071.04" xlink:href="#Degradado_sin_nombre_9"/><linearGradient id="Degradado_sin_nombre_9-4" x1="1908.34" y1="3253.25" x2="1908.34" y2="2357.09" xlink:href="#Degradado_sin_nombre_9"/><linearGradient id="Degradado_sin_nombre_9-5" x1="4410.02" y1="3241.2" x2="4410.02" y2="2613.95" xlink:href="#Degradado_sin_nombre_9"/><linearGradient id="Degradado_sin_nombre_9-6" x1="5059.49" y1="3241.2" x2="5059.49" y2="2605.11" xlink:href="#Degradado_sin_nombre_9"/><linearGradient id="Degradado_sin_nombre_9-7" x1="5733.36" y1="3247.39" x2="5733.36" y2="2613.95" xlink:href="#Degradado_sin_nombre_9"/><linearGradient id="Degradado_sin_nombre_9-8" x1="6241.69" y1="3241.2" x2="6241.69" y2="2613.95" xlink:href="#Degradado_sin_nombre_9"/><linearGradient id="Degradado_sin_nombre_9-9" x1="6679.25" y1="3241.2" x2="6679.25" y2="2613.95" xlink:href="#Degradado_sin_nombre_9"/><linearGradient id="Degradado_sin_nombre_9-10" x1="7229.82" y1="3241.2" x2="7229.82" y2="2613.95" xlink:href="#Degradado_sin_nombre_9"/><linearGradient id="Degradado_sin_nombre_9-11" x1="7960.05" y1="3238.55" x2="7960.05" y2="2611.3" xlink:href="#Degradado_sin_nombre_9"/><linearGradient id="Degradado_sin_nombre_9-12" x1="8534.8" y1="3238.55" x2="8534.8" y2="2611.3" xlink:href="#Degradado_sin_nombre_9"/><linearGradient id="Degradado_sin_nombre_9-13" x1="9101.81" y1="3238.55" x2="9101.81" y2="2611.3" xlink:href="#Degradado_sin_nombre_9"/><linearGradient id="Degradado_sin_nombre_9-14" x1="9558.3" y1="3238.55" x2="9558.3" y2="2611.3" xlink:href="#Degradado_sin_nombre_9"/><linearGradient id="Degradado_sin_nombre_9-15" x1="10014.78" y1="3238.55" x2="10014.78" y2="2611.3" xlink:href="#Degradado_sin_nombre_9"/><linearGradient id="Degradado_sin_nombre_9-16" x1="6638.8" y1="3434.77" x2="6638.8" y2="3387.65" xlink:href="#Degradado_sin_nombre_9"/><linearGradient id="Degradado_sin_nombre_9-17" x1="5192.15" y1="3761.05" x2="5192.15" y2="3617.05" xlink:href="#Degradado_sin_nombre_9"/><linearGradient id="Degradado_sin_nombre_9-18" x1="5453.26" y1="3763.24" x2="5453.26" y2="3614.87" xlink:href="#Degradado_sin_nombre_9"/><linearGradient id="Degradado_sin_nombre_9-19" x1="5702.34" y1="3761.05" x2="5702.34" y2="3617.05" xlink:href="#Degradado_sin_nombre_9"/><linearGradient id="Degradado_sin_nombre_9-20" x1="5945.05" y1="3763.24" x2="5945.05" y2="3614.87" xlink:href="#Degradado_sin_nombre_9"/><linearGradient id="Degradado_sin_nombre_9-21" x1="6216.7" y1="3763.24" x2="6216.7" y2="3614.87" xlink:href="#Degradado_sin_nombre_9"/><linearGradient id="Degradado_sin_nombre_9-22" x1="6504.38" y1="3761.05" x2="6504.38" y2="3617.05" xlink:href="#Degradado_sin_nombre_9"/><linearGradient id="Degradado_sin_nombre_9-23" x1="6957.86" y1="3761.05" x2="6957.86" y2="3617.05" xlink:href="#Degradado_sin_nombre_9"/><linearGradient id="Degradado_sin_nombre_9-24" x1="7220.48" y1="3761.05" x2="7220.48" y2="3617.05" xlink:href="#Degradado_sin_nombre_9"/><linearGradient id="Degradado_sin_nombre_9-25" x1="7615.77" y1="3761.05" x2="7615.77" y2="3617.05" xlink:href="#Degradado_sin_nombre_9"/><linearGradient id="Degradado_sin_nombre_9-26" x1="7862.06" y1="3761.05" x2="7862.06" y2="3617.05" xlink:href="#Degradado_sin_nombre_9"/><linearGradient id="Degradado_sin_nombre_9-27" x1="8152.22" y1="3761.05" x2="8152.22" y2="3617.05" xlink:href="#Degradado_sin_nombre_9"/><linearGradient id="Degradado_sin_nombre_9-28" x1="8427.35" y1="3763.24" x2="8427.35" y2="3614.87" xlink:href="#Degradado_sin_nombre_9"/><linearGradient id="Degradado_sin_nombre_9-29" x1="8697.03" y1="3761.05" x2="8697.03" y2="3617.05" xlink:href="#Degradado_sin_nombre_9"/><linearGradient id="Degradado_sin_nombre_9-30" x1="8960.12" y1="3761.05" x2="8960.12" y2="3617.05" xlink:href="#Degradado_sin_nombre_9"/></defs><title>Recurso 2</title><g id="Capa_2" data-name="Capa 2"><g id="Capa_1-2" data-name="Capa 1"><g style="clip-path:url(#clip-path)"><rect width="10921.26" height="6669.3" style="fill:none"/><path d="M2834,1811.1c55.09,9.27,108,24.82,157,52.59q108.15,61.36,167.94,170.24c1.58,2.89,3.71,5.67,2.32,9.59-5.48,2.58-7.87-2.49-11-5-72.82-58.72-156.36-88-249.45-84.58-181,6.69-326.3,133.79-355.72,311.79a488.63,488.63,0,0,0-6.4,78.67c-.18,87,.83,174-1.38,260.85-3.16,124.52-.21,249.07-3.48,373.54-1.53,58.08.52,116.44-14.32,173.84-41.83,161.74-182,288.55-347.52,312.41-178,25.66-345.9-54.93-436.49-209.6-3.78-6.46-8.85-12.63-9.33-21.12,7.62-.15,10.64,5.34,14.8,8.61,183.37,144.55,445.53,94.53,560.52-107.49,30.2-53.07,46.25-110.76,47-171.86,1.92-155.92,1.86-311.88,4.67-467.78,1.53-85.25,1.79-170.49,2.24-255.74,1.16-217.41,148.13-390.22,362.91-426.21,3.83-.64,7.56-1.82,11.34-2.76Z" transform="translate(-540.64)" style="fill:url(#Degradado_sin_nombre_9)"/><path d="M3672.15,2797.38c-6.83,39.19-12.23,78.88-28.46,115.57-65.7,148.53-174.13,244.68-338.37,267.49-73.5,10.21-145.06.82-205-49.17-53.34-44.52-77.71-104.22-85.36-171.8-.54-4.8-1.29-10.07,3-16.27,2.15,8.65,4.13,16,5.78,23.38,31.55,141.42,230.52,229,359.18,104.94,59.9-57.76,91.44-129.85,107-209.35,23.33-119.08,17.55-236.7-27.77-350.47-23.2-58.23-56.9-109.53-109.21-146.31-124.67-87.67-285.52-32.61-330.52,113-1.3,4.21-2.66,8.39-5,15.71-3.73-10.6-2.48-18.49-1.24-26.26,13.2-82.35,63.52-133.86,139.67-159.55,131.63-44.42,251.27-17.3,357.79,69.4,92.52,75.32,141.38,174.84,156.13,292.17a90.36,90.36,0,0,0,2.32,9.76Z" transform="translate(-540.64)" style="fill:url(#Degradado_sin_nombre_9-2)"/><path d="M2092.92,3497c6.82-1.15,9.61,4.76,13.75,7.89,112,84.62,235.23,106.79,366.58,57.53,132.51-49.7,209.89-148.68,235.6-287.78,4.7-25.38,6.34-51.11,6.4-77,.19-87-.82-173.94,1.38-260.84,3.16-125.07.23-250.17,3.5-375.19,1.51-57.52-.65-115.34,14-172.18,42.12-163.15,181.19-289.18,348.21-313.67,177.54-26,347.53,56.13,437.15,211.4,3.3,5.72,7.52,11.16,8.33,19.41-7.36.31-10.81-5.46-15.14-8.87C3357.13,2175.32,3140,2190,3004.45,2333.7c-63.3,67.1-96.79,148.57-98.65,240.54-3.17,156.44-2.18,313-5,469.42-1.62,89.18-1.32,178.34-2.41,267.5a424.77,424.77,0,0,1-369.64,416.51c-175.49,23.32-344.89-61.78-431.42-216.81C2095,3506.71,2090.74,3503,2092.92,3497Z" transform="translate(-540.64)" style="fill:url(#Degradado_sin_nombre_9-3)"/><path d="M2235.57,3049.71c2.71,47.5-12.68,88.5-44.1,123-42.57,46.77-98.24,67.19-159,76.49-186.51,28.59-360.28-97.75-420.22-264.59-48.24-134.24-49.65-269.62,18-398.05,66.61-126.52,171.3-206.35,315.6-225.74,82.34-11.06,160.77.34,223,62.77,42,42.16,62.11,95.19,69.85,153.37.66,4.95.16,10.08-.08,15.11-.06,1.35-1.16,2.64-2.83,6.16-5.91-24.83-11.94-47.25-22.15-68.54-49.3-102.84-219.47-177.14-341.83-61-57.22,54.28-88.72,122.23-105.08,197.47-26.68,122.73-21.78,244.09,24.54,362,22.5,57.25,55.45,107.66,105.87,144.82,124.12,91.47,288.8,36.88,334.41-110.76C2232.88,3058,2234.24,3053.86,2235.57,3049.71Z" transform="translate(-540.64)" style="fill:url(#Degradado_sin_nombre_9-4)"/><path d="M4711.33,2931.33q0,80-30.07,138.79T4603,3166.49a339.91,339.91,0,0,1-109.2,56.15,424.84,424.84,0,0,1-125.12,18.56h-260v-31.38a294.76,294.76,0,0,0,33.38-2.44q20.57-2.43,27.2-5.52,13.26-5.76,19.23-17t6-27.18V2705a68.38,68.38,0,0,0-5.08-27q-5.08-11.94-20.11-19a120.64,120.64,0,0,0-29.63-9.72,246.48,246.48,0,0,0-27.41-4V2614h274.11a365.4,365.4,0,0,1,111.42,17.45q54.81,17.47,95.49,47.08,55.26,39.36,86.66,103T4711.33,2931.33Zm-108.32-.45q0-63.2-16.8-114.26t-49.08-89.07q-30.49-36.24-74.93-57t-98.82-20.78q-18.14,0-40.89.67t-33.83,1.1v482.27q0,40.22,23.44,55.69t72.06,15.47q56.15,0,98.15-19.9t68.09-55.25q27.41-37.12,40-86T4603,2930.88Z" transform="translate(-540.64)" style="fill:url(#Degradado_sin_nombre_9-5)"/><path d="M5382.67,3241.2H5121.38v-31.38q34.48-2.22,57.26-8.85c15.17-4.43,22.76-9.86,22.76-16.36a65.6,65.6,0,0,0-.88-9.72,47.53,47.53,0,0,0-2.65-10.16l-52.17-140.57H4926q-12.39,30.93-20.12,53.92t-13.93,42.45a304.33,304.33,0,0,0-8,30.94,110.83,110.83,0,0,0-2.21,19.45q0,17.67,27.86,27.41t62.78,11.49v31.38H4736.3v-31.38a185.11,185.11,0,0,0,28.73-5.1q17.25-4.18,28.3-11.26,17.68-11.94,27.42-25t19-36q47.3-118,104.33-265.23t101.69-262.12h35.37l209.12,541q6.63,17.25,15,27.86t23.44,20.77q10.16,6.19,26.52,10.39t27.41,4.65Zm-252.89-256.38-95.05-243.13-93.29,243.13Z" transform="translate(-540.64)" style="fill:url(#Degradado_sin_nombre_9-6)"/><path d="M6071.59,2645.33c-8.28.3-20.93,2.65-38,7.07s-29.34,9-36.7,13.71q-15.91,11-21.45,42.43t-5.51,79.57v459.28h-38.47l-380.22-513.21v323.57q0,54.38,6.85,83.54t21,41.56q10.17,9.72,42,18.12t42,8.85v31.38H5405.75v-31.38q11.94-.89,40.23-8.63t35.37-13.92q15.48-12.36,21.23-37.8t5.74-86.85v-309a123.29,123.29,0,0,0-7.07-40.67q-7.08-20.33-19-31.38-15.91-14.6-43.11-25t-44-11.27V2614H5574.2L5927,3092.23V2793.86q0-54.81-7.08-84.21t-20.34-39.12q-12.37-8.4-40.45-16.36t-42.67-8.84V2614h255.12Z" transform="translate(-540.64)" style="fill:url(#Degradado_sin_nombre_9-7)"/><path d="M6382.94,3241.2H6100.43v-31.38q11.94-.89,34.49-2.66t31.83-5.3q14.59-5.76,21.22-15.7t6.63-27.62V2704.12q0-15.47-4.86-25.86t-23-17.45a231.51,231.51,0,0,0-33.38-10q-20.13-4.63-32.94-5.52V2614h282.51v31.38a285.64,285.64,0,0,0-32.72,3.32,226.76,226.76,0,0,0-33.16,7.29q-16.8,5.31-22.54,17.24a60.23,60.23,0,0,0-5.74,26.52v454a51.32,51.32,0,0,0,6.41,25.86q6.39,11.28,21.87,17.9,9.28,3.54,30.3,7.74t35.58,4.65Z" transform="translate(-540.64)" style="fill:url(#Degradado_sin_nombre_9-8)"/><path d="M6945.62,3056.43l-11.94,184.77H6412.87v-31.38q13.28-.89,35.37-3.77t28.73-6q14.16-6.63,19.68-17.24t5.52-27V2705q0-14.58-4.86-25.85T6477,2660.81q-11.94-5.74-32.05-10.17t-32.05-5.31V2614h485.45v151.17h-33.16q-8.86-33.59-38.25-71.39T6771,2652.4q-13.72-1.76-32.72-2.65t-43.33-.88h-98.59v249.32h70.74q34,0,49.73-6.41t27.64-21.45q9.72-12.81,16.57-34.26a214.48,214.48,0,0,0,9.07-40.45h33.16V3041H6770.1a198.05,198.05,0,0,0-9.51-44.86q-7.74-23.64-16.13-34.26-13.71-17.25-31.18-22.54t-46.19-5.31h-70.74v188.31q0,28.29,4,44.64t15.47,24.75q11.49,8.4,31.4,10.84t56.58,2.43h38.46a383.86,383.86,0,0,0,40.24-1.76,240,240,0,0,0,34.71-6.41q17.9-4.65,25.42-12.6,20.32-21.22,42.67-64.32t28.51-63.43Z" transform="translate(-540.64)" style="fill:url(#Degradado_sin_nombre_9-9)"/><path d="M7481.61,3054.66l-13.27,186.54H6978v-31.38q10.62-.89,30.74-3.1t28.06-5.75q13.28-5.73,19.23-16.79t6-28.3V2706.77q0-15-5.08-26.52t-20.12-18.56q-10.17-5.31-28.51-10.39t-30.29-6V2614h264.83v31.38q-12.39.45-32,4.42t-28.52,7.08q-15,5.3-20.56,18.12a68.55,68.55,0,0,0-5.52,27.4v421.26q0,29.17,2.87,45.31t13.49,25q10.17,7.95,30.28,10.38t56.36,2.44q16.36,0,34.06-.89a296,296,0,0,0,33.59-3.53,172.05,172.05,0,0,0,28.52-7.3q13.05-4.62,19.23-11.71,18.12-20.33,42.23-61.67t33.38-67Z" transform="translate(-540.64)" style="fill:url(#Degradado_sin_nombre_9-10)"/><path d="M8201.67,2766q0,49.07-19.23,86.86a173.62,173.62,0,0,1-53.28,62.55,229.79,229.79,0,0,1-73.83,36.24,309,309,0,0,1-85.33,11.49h-70.29v190.08q0,15.48,5.08,27.18t21,17.91q7.95,3.09,28.08,5.75a358.91,358.91,0,0,0,36.91,3.09v31.38H7721.53v-31.38q10.62-.89,30.73-3.09t28.07-5.75q13.26-5.74,19.23-16.8t6-28.29V2700.59a82.3,82.3,0,0,0-4.43-27.84q-4.41-12.37-20.77-18.57A187,187,0,0,0,7747,2646q-16.59-2.43-28.52-3.33V2611.3h286.5q87.54,0,142.13,42.22T8201.67,2766Zm-134.41,107q15-21.22,19.9-44t4.87-40.88a229.37,229.37,0,0,0-6-51.28q-6-26.07-20.55-45.53-15.48-20.78-40.68-32.27T7962,2647.55h-62.33V2924.7h45.09q47.74,0,77.59-14.8T8067.26,2873Z" transform="translate(-540.64)" style="fill:url(#Degradado_sin_nombre_9-11)"/><path d="M8801.18,3053.78l-11.94,184.77H8268.43v-31.38q13.28-.89,35.36-3.76t28.74-6q14.16-6.64,19.68-17.25t5.52-27V2702.36q0-14.58-4.86-25.86t-20.34-18.34q-11.94-5.74-32.05-10.17t-32-5.31V2611.3h485.44v151.18h-33.16q-8.85-33.58-38.24-71.39t-55.92-41.33q-13.72-1.76-32.73-2.65t-43.32-.89h-98.59v249.31h70.73q34.05,0,49.74-6.4t27.64-21.45q9.7-12.81,16.57-34.25a215.43,215.43,0,0,0,9.07-40.45h33.16V3038.3h-33.16a198,198,0,0,0-9.51-44.85q-7.74-23.65-16.13-34.26-13.71-17.25-31.18-22.54t-46.2-5.32h-70.73v188.32q0,28.29,4,44.64t15.48,24.75q11.49,8.4,31.39,10.83t56.59,2.44h38.46a383.53,383.53,0,0,0,40.24-1.77,237.5,237.5,0,0,0,34.71-6.41q17.9-4.64,25.42-12.6,20.31-21.22,42.66-64.32t28.52-63.43Z" transform="translate(-540.64)" style="fill:url(#Degradado_sin_nombre_9-12)"/><path d="M9375,2781.49h-30.5q-4-15.91-14.37-37.8a342.58,342.58,0,0,0-23.2-41.33,208,208,0,0,0-29-35.58q-15.7-15.26-30.29-17.46-13.69-1.77-34.47-2.66t-38.48-.88h-25.64V3147.5a58,58,0,0,0,6.19,26.73q6.2,12.17,21.67,18.79,8,3.11,33.38,8.4t39.57,5.75v31.38H8953.71v-31.38q12.38-.89,37.8-3.54t35.15-6.63q14.58-5.73,21.44-16.58t6.86-29V2645.78h-25.64q-13.72,0-34,.66t-38.9,2.88q-14.6,1.77-30.29,17.46a233.12,233.12,0,0,0-29,35.58,300.8,300.8,0,0,0-23.42,42.22q-10.19,22.32-14.15,36.91h-31V2611.3H9375Z" transform="translate(-540.64)" style="fill:url(#Degradado_sin_nombre_9-13)"/><path d="M9699.56,3238.55H9417.05v-31.38q11.94-.89,34.49-2.65t31.83-5.3q14.58-5.76,21.21-15.7t6.63-27.63V2701.48q0-15.48-4.86-25.86t-23-17.46a232.91,232.91,0,0,0-33.38-9.95q-20.13-4.64-32.94-5.53V2611.3h282.51v31.38a288,288,0,0,0-32.72,3.33,224.18,224.18,0,0,0-33.16,7.29q-16.82,5.29-22.55,17.24a60.33,60.33,0,0,0-5.74,26.52v454a51.45,51.45,0,0,0,6.41,25.86q6.39,11.28,21.88,17.9,9.28,3.54,30.3,7.74t35.58,4.64Z" transform="translate(-540.64)" style="fill:url(#Degradado_sin_nombre_9-14)"/><path d="M10288,2781.49h-30.51q-4-15.91-14.37-37.8a342.58,342.58,0,0,0-23.2-41.33,207.47,207.47,0,0,0-29-35.58q-15.69-15.26-30.28-17.46-13.71-1.77-34.48-2.66t-38.47-.88h-25.64V3147.5a57.83,57.83,0,0,0,6.19,26.73q6.18,12.17,21.67,18.79,7.95,3.11,33.38,8.4t39.57,5.75v31.38H9866.68v-31.38q12.36-.89,37.8-3.54t35.15-6.63q14.58-5.73,21.43-16.58t6.86-29V2645.78h-25.64q-13.73,0-34.05.66t-38.9,2.88q-14.58,1.77-30.28,17.46a232.53,232.53,0,0,0-29,35.58,299.79,299.79,0,0,0-23.42,42.22q-10.2,22.32-14.15,36.91h-31V2611.3H10288Z" transform="translate(-540.64)" style="fill:url(#Degradado_sin_nombre_9-15)"/><g id="Rectángulo_1" data-name="Rectángulo 1"><rect x="3521.75" y="3387.65" width="6234.1" height="47.13" style="fill:url(#Degradado_sin_nombre_9-16)"/></g><path d="M5123.71,3761.05l59.29-144h18.1l59.49,144H5240.3l-16.12-40.18h-64.85L5143,3761.05Zm53.92-85.92-11.74,29.24h51.73l-11.74-29.83q-7.57-18.9-13.73-35.6h-.4Q5186,3654.63,5177.63,3675.13Z" transform="translate(-540.64)" style="fill:url(#Degradado_sin_nombre_9-17)"/><path d="M5409.6,3752.3v-20.69a68.77,68.77,0,0,0,21.08,10.74,74.13,74.13,0,0,0,21.89,3.58q13.32,0,21.28-6.06t8-17.41a22.79,22.79,0,0,0-2.18-10.43,17.77,17.77,0,0,0-7.67-7.26,74.51,74.51,0,0,0-9.25-4.39q-3.78-1.37-12.53-3.78c-.53-.12-1-.26-1.39-.39s-.86-.26-1.39-.4a12.21,12.21,0,0,1-1.4-.4,132.6,132.6,0,0,1-15-5.16,63.36,63.36,0,0,1-12.33-7.16,28.92,28.92,0,0,1-9.45-11.63,39.67,39.67,0,0,1-3.19-16.41q0-18.9,12.64-29.55t33.92-10.63q24.47,0,41.38,10.74v19.89a71.44,71.44,0,0,0-41.78-13.33q-12.53,0-20,5.47c-5,3.66-7.45,9.05-7.45,16.22a20.87,20.87,0,0,0,.59,5,35.46,35.46,0,0,0,1.3,4.18,10.72,10.72,0,0,0,2.28,3.47c1.07,1.13,2,2.06,2.69,2.78a14.46,14.46,0,0,0,3.68,2.39c1.72.86,3.05,1.53,4,2a33.19,33.19,0,0,0,4.67,1.7c2.19.66,3.75,1.13,4.68,1.39l5.17,1.49c2.52.74,4.25,1.23,5.17,1.49a129.66,129.66,0,0,1,12.54,4,79.57,79.57,0,0,1,11,5.37,35.72,35.72,0,0,1,9.45,7.54,36.8,36.8,0,0,1,6.07,10.55,39,39,0,0,1,2.49,14.31q0,19.5-13.13,30.64t-35,11.14Q5428.51,3763.24,5409.6,3752.3Z" transform="translate(-540.64)" style="fill:url(#Degradado_sin_nombre_9-18)"/><path d="M5659.86,3761.05v-144H5743v17.11h-64.26v43.76h56.3v16.51h-56.3v49.51h66v17.11Z" transform="translate(-540.64)" style="fill:url(#Degradado_sin_nombre_9-19)"/><path d="M5901.38,3752.3v-20.69a68.93,68.93,0,0,0,21.09,10.74,74.13,74.13,0,0,0,21.89,3.58q13.34,0,21.28-6.06t8-17.41a22.65,22.65,0,0,0-2.19-10.43,17.68,17.68,0,0,0-7.66-7.26,73.81,73.81,0,0,0-9.24-4.39c-2.53-.91-6.7-2.17-12.55-3.78-.52-.12-1-.26-1.38-.39s-.87-.26-1.39-.4a12.21,12.21,0,0,1-1.4-.4,131.91,131.91,0,0,1-15-5.16,62.78,62.78,0,0,1-12.33-7.16,29,29,0,0,1-9.46-11.63,39.67,39.67,0,0,1-3.18-16.41q0-18.9,12.64-29.55t33.92-10.63q24.47,0,41.37,10.74v19.89a71.41,71.41,0,0,0-41.77-13.33q-12.54,0-20,5.47c-5,3.66-7.46,9.05-7.46,16.22a20.38,20.38,0,0,0,.6,5,37.56,37.56,0,0,0,1.29,4.18,10.93,10.93,0,0,0,2.29,3.47c1.06,1.13,1.95,2.06,2.69,2.78a14.28,14.28,0,0,0,3.68,2.39c1.72.86,3.05,1.53,4,2a32.24,32.24,0,0,0,4.67,1.7c2.19.66,3.75,1.13,4.68,1.39l5.17,1.49c2.52.74,4.24,1.23,5.17,1.49a129.66,129.66,0,0,1,12.54,4,80.12,80.12,0,0,1,11,5.37,35.88,35.88,0,0,1,9.45,7.54,36.8,36.8,0,0,1,6.07,10.55,39.23,39.23,0,0,1,2.47,14.31q0,19.5-13.12,30.64t-35,11.14Q5920.29,3763.24,5901.38,3752.3Z" transform="translate(-540.64)" style="fill:url(#Degradado_sin_nombre_9-20)"/><path d="M6164.48,3741.86q-21-21.39-21-52.8t21-52.8q21-21.39,52.22-21.39t52.23,21.39q21,21.36,21,52.8t-21,52.8q-21,21.36-52.23,21.38T6164.48,3741.86Zm13.34-93.09q-15.43,16.42-15.42,40.29t15.42,40.27q15.41,16.41,38.88,16.4t38.9-16.4q15.42-16.42,15.41-40.27t-15.41-40.29q-15.42-16.39-38.9-16.4T6177.82,3648.77Z" transform="translate(-540.64)" style="fill:url(#Degradado_sin_nombre_9-21)"/><path d="M6449.28,3761.05v-144h39q27.46,0,40.19,7.17,19.91,11,19.9,33.61t-18.51,33.8a45.92,45.92,0,0,1-16.52,6l46.16,63.45h-22.87l-44-61.65h-24.47v61.65Zm18.89-77.17h24.47q19.5,0,28.24-6.56,8.58-6.37,8.57-17.9,0-13.92-11.74-20.48-9-4.79-30.83-4.78h-18.71Z" transform="translate(-540.64)" style="fill:url(#Degradado_sin_nombre_9-22)"/><path d="M6896.49,3761.05v-144h39.59q31.42,0,50.92,11.74a64.87,64.87,0,0,1,23.78,25.07,71.87,71.87,0,0,1,8.45,34.59,74.29,74.29,0,0,1-7.45,33.12,65.53,65.53,0,0,1-21.19,25q-20.68,14.52-59.29,14.52Zm18.89-17.11h18.9q27.87,0,42.78-9.55A49,49,0,0,0,6994,3715.7a55.74,55.74,0,0,0,6.36-26.64,54.48,54.48,0,0,0-6.36-26.56,50.5,50.5,0,0,0-16.71-18.4q-14.92-9.95-43.37-9.94h-18.51Z" transform="translate(-540.64)" style="fill:url(#Degradado_sin_nombre_9-23)"/><path d="M7178,3761.05v-144h83.15v17.11h-64.27v43.76h56.31v16.51h-56.31v49.51H7263v17.11Z" transform="translate(-540.64)" style="fill:url(#Degradado_sin_nombre_9-24)"/><path d="M7606.32,3761.05v-144h18.89v144Z" transform="translate(-540.64)" style="fill:url(#Degradado_sin_nombre_9-25)"/><path d="M7861.77,3721.87l-31.44-44.95q-6.57-9.35-19.3-28.43l-.39.19q.39,17.12.39,31.23v81.14h-18.29v-144H7811l51.14,73.2,51.11-73.2h18.11v144h-18.9v-81.14q0-14.11.39-31.23l-.39-.19q-12.72,19.08-19.3,28.43Z" transform="translate(-540.64)" style="fill:url(#Degradado_sin_nombre_9-26)"/><path d="M8083.78,3761.05l59.28-144h18.11l59.48,144h-20.3l-16.1-40.18h-64.86l-16.31,40.18Zm53.91-85.92L8126,3704.37h51.72l-11.74-29.83q-7.56-18.9-13.72-35.6h-.4Q8146,3654.63,8137.69,3675.13Z" transform="translate(-540.64)" style="fill:url(#Degradado_sin_nombre_9-27)"/><path d="M8386.37,3742.35q-21.3-20.86-21.28-52.9t21.38-53.3q21.39-21.27,54.61-21.28,24.85,0,44.16,11.93v21.48a68,68,0,0,0-44.56-15.91q-25.07,0-40.89,16.31T8384,3689.06q0,23.85,15.63,40.47t41.67,16.6q16.51,0,29.45-6.76v-33.62h-32.23v-16.5h51.13v59.47q-21.08,14.51-49.94,14.52Q8407.65,3763.24,8386.37,3742.35Z" transform="translate(-540.64)" style="fill:url(#Degradado_sin_nombre_9-28)"/><path d="M8654.56,3761.05v-144h83.15v17.11h-64.27v43.76h56.31v16.51h-56.31v49.51h66.06v17.11Z" transform="translate(-540.64)" style="fill:url(#Degradado_sin_nombre_9-29)"/><path d="M8917.74,3761.05h-18.3v-144h17.9l60.28,80q11.75,15.52,24.86,33.6l.4-.19q-.39-25.07-.4-41v-72.4h18.32v144h-17.92l-60.28-80q-11.73-15.51-24.86-33.61l-.4.19q.41,25.07.4,41Z" transform="translate(-540.64)" style="fill:url(#Degradado_sin_nombre_9-30)"/></g></g></g></svg>